# xmcd
#
# Track frame offsets: 
#        150
#        11024
#        24001
#        34464
#        41947
#        54087
#        63858
#        76510
#        96883
#        112526
#        119150
#        128884
#        141763
#        150617
#        157190
#        167789
#        182101
#        196423
#        207978
#        219974
#
# Disc length: 3154 seconds
#
# Revision: 0
# Processed by: cddbd v1.5.2PL0 Copyright (c) Steve Scherf et al.
# Submitted via: ExactAudioCopyFreeDBPlugin 1.0
#
DISCID=0b0c5014
DTITLE=Various Artist - The Original Louisiana Hayride Archives Vol.1
DYEAR=2001
DGENRE=Country
TTITLE0=George Jones - The Race Is On
TTITLE1=Hank Snow - My Filipino Rose
TTITLE2=Webb Pierce - I Don't Care
TTITLE3=Johnny Cash - Five Feet High And Rising
TTITLE4=Jim Reeves - Am I Losing You
TTITLE5=Faron Young - Live Fast, Love Hard, Die Young
TTITLE6=Kitty Wells - Making Believe
TTITLE7=Hank Williams - Jambalaya
TTITLE8=Slim Whitman - Careless Hands
TTITLE9=Ernest Tubb - Walking The Floor Over You
TTITLE10=Jim Reeves - Red Eyed And Rowdy
TTITLE11=Faron Young - Anything Your Heart Desires
TTITLE12=Marty Robbins - I Can't Quit You
TTITLE13=Loretta Lynn - Mind Your Own Business
TTITLE14=Red Sovine - I Hope You Don't Care
TTITLE15=Johnny Cash - Rock Island Line
TTITLE16=T. Texas Tyler - Courtin' In The Rain
TTITLE17=Johnny Horton - Honky Tonk Man
TTITLE18=George Jones - She Thinks I Still Care
TTITLE19=Charlie Walker - Pick Me Up On Your Way Down
EXTD=
EXTT0=
EXTT1=
EXTT2=
EXTT3=
EXTT4=
EXTT5=
EXTT6=
EXTT7=
EXTT8=
EXTT9=
EXTT10=
EXTT11=
EXTT12=
EXTT13=
EXTT14=
EXTT15=
EXTT16=
EXTT17=
EXTT18=
EXTT19=
PLAYORDER=
